<svg fill="none" height="24" viewBox="0 0 24 24" width="24" xmlns="http://www.w3.org/2000/svg"><path d="m20.6599 9.13335c-1.3199-1.98523-3.7559-3.39098-6.3635-3.39098-2.5647 0-5.0006 1.36283-6.36343 3.39098h1.82426c1.24477-1.28772 2.85447-1.98523 4.54987-1.98523 1.6633 0 3.3052.69751 4.55 1.98523z" fill="#e50012"/><g fill="#313b99"><path d="m7.18181 15.8724-.0322.0321c-.55801.5688-1.20186.88-1.87791.88-1.39502 0-2.40373-1.0516-2.40373-2.5003s1.00871-2.5003 2.40373-2.5003c.66532 0 1.3199.3004 1.87791.8799l.0322.0322.90139-1.0838-.02146-.0322c-.74043-.8907-1.64183-1.3199-2.73639-1.3199-1.10528 0-2.11399.3648-2.8437 1.0409-.79409.7404-1.21259 1.7598-1.21259 2.9832 0 1.2126.4185 2.2427 1.20186 2.9724.72971.6761 1.73842 1.0409 2.8437 1.0409 1.09456 0 1.99596-.4292 2.73639-1.3091l.02146-.0322z"/><path d="m8.9846 18.1474h1.5775v-.8048-6.9429h-1.5775z"/><path d="m16.7753 16.4626c-.4185.2576-.8156.3863-1.1697.3863-.5151 0-.7404-.2682-.7404-.8799v-4.11h1.6096v-1.4594h-1.6096v-2.41443l-1.556.83701v1.57742h-1.3414v1.4594h1.3414v4.3783c0 1.1911.7082 2.0066 1.7598 2.0281.7083.0107 1.1483-.2039 1.4058-.3541l.0215-.0107.3863-1.4916z"/><path d="m18.0844 18.1474h1.5775v-1.2984-6.4493h-1.5775z"/><path d="m22.2051 8.56467c0 .07512-.0536.10731-.1287.10731h-.2039v-.22535h.2039c.0751.01073.1287.05366.1287.11804zm.1288 0c0-.16096-.118-.23608-.2575-.23608h-.3434v.79409h.1287v-.30046h.1503l.1502.30046h.161l-.161-.32193c.1073-.03219.1717-.10731.1717-.23608zm.279.1717c0 .34339-.2575.61166-.6117.61166-.3433 0-.6116-.25754-.6116-.61166 0-.34339.2575-.61167.6116-.61167.3542 0 .6117.26828.6117.61167zm.118 0c0-.40778-.3112-.71897-.7189-.71897-.4078 0-.719.31119-.719.71897 0 .40777.3112.71897.719.71897.4077 0 .7189-.3112.7189-.71897z"/></g></svg>